<svg width="16" height="16" viewBox="0 0 16 16" xmlns="http://www.w3.org/2000/svg" stroke-linecap="round" stroke-linejoin="round">
<path d="M0 4.83c0-.643.452-1.423 1.012-1.734L5.988.241c.56-.321 1.464-.321 2.024 0l1.939 1.112 2.86 1.642.004-.005.173.106C13.548 3.406 14 4.187 14 4.83v5.712c0 .642-.452 1.422-1.012 1.733l-.173.107-.004-.006-2.86 1.642-1.939 1.112c-.56.321-1.464.321-2.024 0l-4.976-2.855C.452 11.964 0 11.183 0 10.54V4.829Z" fill="#8266e2"/>
<path d="M5.5 8.5c0 .55-.45 1-1 1s-1-.45-1-1v-2c0-.55.45-1 1-1s1 .45 1 1m2 0h4m-4 2h4m-1-3v4m-2-4v4" fill="none" stroke="#fff" transform="matrix(1.07692 0 0 1.06959 -1.077 -.337)"/>
</svg>
